<?xml version="1.0" encoding="iso-8859-1"?>
<!-- Generator: Adobe Illustrator 19.0.0, SVG Export Plug-In . SVG Version: 6.00 Build 0)  -->
<svg version="1.1" id="Capa_1" xmlns="http://www.w3.org/2000/svg" xmlns:xlink="http://www.w3.org/1999/xlink" x="0px" y="0px"
	 fill="#fa4f26" viewBox="0 0 512 512" style="enable-background:new 0 0 512 512;" xml:space="preserve">
<g>
	<g>
		<path d="M0,222.296v198.523h512V222.296H0z M157.714,345.419H65.535v-30h92.179V345.419z M404.615,363.274
			c-9.478,0-18.013-4.018-24.01-10.438c-5.997,6.42-14.532,10.438-24.01,10.438c-18.147,0-32.858-14.711-32.858-32.857
			s14.711-32.857,32.858-32.857c9.478,0,18.013,4.018,24.01,10.438c5.997-6.419,14.532-10.438,24.01-10.438
			c18.147,0,32.858,14.711,32.858,32.857S422.762,363.274,404.615,363.274z"/>
	</g>
</g>
<g>
	<g>
		<rect y="91.182" width="512" height="68.12"/>
	</g>
</g>
<g>
</g>
<g>
</g>
<g>
</g>
<g>
</g>
<g>
</g>
<g>
</g>
<g>
</g>
<g>
</g>
<g>
</g>
<g>
</g>
<g>
</g>
<g>
</g>
<g>
</g>
<g>
</g>
<g>
</g>
</svg>
