<?xml version="1.0" encoding="iso-8859-1"?>
<!-- Generator: Adobe Illustrator 19.0.0, SVG Export Plug-In . SVG Version: 6.00 Build 0)  -->
<svg version="1.1" id="Layer_1" xmlns="http://www.w3.org/2000/svg" xmlns:xlink="http://www.w3.org/1999/xlink" x="0px" y="0px"
	 viewBox="0 0 494.816 494.816" style="enable-background:new 0 0 494.816 494.816;" xml:space="preserve">
<g>
	<circle style="fill:#F9BA48;" cx="424.032" cy="421.568" r="32"/>
	<circle style="fill:#F9BA48;" cx="280.032" cy="421.568" r="32"/>
	<ellipse style="fill:#F9BA48;" cx="82.163" cy="412.945" rx="32.001" ry="32.001"/>
</g>
<g>
	<path style="fill:#333333;" d="M360.032,13.568v480h128v-480H360.032z M472.032,29.568v16h-96v-16H472.032z M472.032,61.568v256
		h-96v-256H472.032z M376.032,477.568v-144h96v144H376.032z"/>
	<rect x="440.032" y="85.568" style="fill:#333333;" width="16" height="16"/>
	<rect x="440.032" y="125.568" style="fill:#333333;" width="16" height="16"/>
	<rect x="440.032" y="165.568" style="fill:#333333;" width="16" height="16"/>
	<rect x="440.032" y="205.568" style="fill:#333333;" width="16" height="16"/>
	<rect x="392.032" y="85.568" style="fill:#333333;" width="16" height="200"/>
	<path style="fill:#333333;" d="M216.032,493.568h128v-480h-128V493.568z M232.032,477.568v-144h96v144H232.032z M232.032,317.568
		v-256h96v256H232.032z M328.032,29.568v16h-96v-16H328.032z"/>
	<rect x="296.032" y="85.568" style="fill:#333333;" width="16" height="16"/>
	<rect x="296.032" y="125.568" style="fill:#333333;" width="16" height="16"/>
	<rect x="296.032" y="165.568" style="fill:#333333;" width="16" height="16"/>
	<rect x="296.032" y="205.568" style="fill:#333333;" width="16" height="16"/>
	<rect x="248.032" y="85.568" style="fill:#333333;" width="16" height="200"/>
	<path style="fill:#333333;" d="M6.784,472.936l126.12,21.88L214.96,21.88L88.848,0L6.784,472.936z M96.408,50.032l94.584,16.408
		l-43.768,252.232L52.64,302.264L96.408,50.032z M119.864,476.32L25.28,459.904l24.616-141.872l94.584,16.416L119.864,476.32z
		 M196.464,34.912l-2.736,15.768L99.136,34.264l2.736-15.768L196.464,34.912z"/>
	
		<rect x="153.901" y="85.871" transform="matrix(-0.171 0.9853 -0.9853 -0.171 282.0743 -49.5937)" style="fill:#333333;" width="16" height="16"/>
	
		<rect x="147.04" y="125.283" transform="matrix(-0.171 0.9853 -0.9853 -0.171 312.8714 3.3166)" style="fill:#333333;" width="16" height="16"/>
	
		<rect x="140.203" y="164.697" transform="matrix(-0.171 0.9853 -0.9853 -0.171 343.6991 56.2067)" style="fill:#333333;" width="16" height="16"/>
	
		<rect x="133.366" y="204.112" transform="matrix(-0.171 0.9853 -0.9853 -0.171 374.528 109.0985)" style="fill:#333333;" width="16" height="16"/>
	
		<rect x="-1.146" y="168.31" transform="matrix(-0.171 0.9853 -0.9853 -0.171 289.4738 109.0577)" style="fill:#333333;" width="200.006" height="16"/>
</g>
<g>
</g>
<g>
</g>
<g>
</g>
<g>
</g>
<g>
</g>
<g>
</g>
<g>
</g>
<g>
</g>
<g>
</g>
<g>
</g>
<g>
</g>
<g>
</g>
<g>
</g>
<g>
</g>
<g>
</g>
</svg>
