<?xml version="1.0" encoding="iso-8859-1"?>
<!-- Generator: Adobe Illustrator 19.0.0, SVG Export Plug-In . SVG Version: 6.00 Build 0)  -->
<svg version="1.1" id="Layer_1" xmlns="http://www.w3.org/2000/svg" xmlns:xlink="http://www.w3.org/1999/xlink" x="0px" y="0px"
	 viewBox="0 0 496 496" style="enable-background:new 0 0 496 496;" xml:space="preserve">
<path style="fill:#F9BA48;" d="M472,40H24C10.768,40,0,50.768,0,64v264h496V64C496,50.768,485.232,40,472,40z M456,288H40V80h416
	V288z"/>
<g>
	<path style="fill:#333333;" d="M0,312v48c0,13.232,10.768,24,24,24h128v56h-40v16h40h192h40v-16h-40v-56h128
		c13.232,0,24-10.768,24-24v-48H0z M328,440H168v-56h160V440z M480,360c0,4.416-3.584,8-8,8H344h-96h-96H24c-4.416,0-8-3.584-8-8
		v-32h232h232V360z"/>
	<path style="fill:#333333;" d="M268,348c0-11.032-8.968-20-20-20s-20,8.968-20,20s8.968,20,20,20C259.032,368,268,359.032,268,348z
		 M248,352c-2.2,0-4-1.8-4-4s1.8-4,4-4c2.2,0,4,1.8,4,4S250.2,352,248,352z"/>
	<path style="fill:#333333;" d="M152,296h192h16h104V192v-16V72H360h-16h-88h-16H32v104v16v104h104H152z M344,280H152v-88h88h16h88
		V280z M448,280h-88v-88h88V280z M360,88h88v88h-88V88z M256,88h88v88h-88V88z M48,88h192v88h-88h-16H48V88z M48,280v-88h88v88H48z"
		/>
	<path style="fill:#333333;" d="M300,104c-15.44,0-28,12.56-28,28s12.56,28,28,28s28-12.56,28-28S315.44,104,300,104z M300,144
		c-6.616,0-12-5.384-12-12s5.384-12,12-12s12,5.384,12,12S306.616,144,300,144z"/>
	<rect x="168" y="208" style="fill:#333333;" width="160" height="16"/>
	<rect x="168" y="248" style="fill:#333333;" width="112" height="16"/>
	
		<rect x="395.988" y="207.722" transform="matrix(-0.7071 0.7071 -0.7071 -0.7071 856.5288 117.2172)" style="fill:#333333;" width="16" height="56.559"/>
	<path style="fill:#333333;" d="M64,160h56v-56H64V160z M80,120h24v24H80V120z"/>
	<rect x="136" y="104" style="fill:#333333;" width="88" height="16"/>
	<rect x="136" y="144" style="fill:#333333;" width="32" height="16"/>
	<path style="fill:#333333;" d="M416,104h-24c-8.824,0-16,7.176-16,16v24c0,8.824,7.176,16,16,16h24c8.824,0,16-7.176,16-16v-24
		C432,111.176,424.824,104,416,104z M392,144v-24h24l0.016,24H392z"/>
	<rect x="104" y="208" style="fill:#333333;" width="16" height="56"/>
	<rect x="64" y="208" style="fill:#333333;" width="16" height="56"/>
</g>
<g>
</g>
<g>
</g>
<g>
</g>
<g>
</g>
<g>
</g>
<g>
</g>
<g>
</g>
<g>
</g>
<g>
</g>
<g>
</g>
<g>
</g>
<g>
</g>
<g>
</g>
<g>
</g>
<g>
</g>
</svg>
