<?xml version="1.0" encoding="iso-8859-1"?>
<!-- Generator: Adobe Illustrator 19.0.0, SVG Export Plug-In . SVG Version: 6.00 Build 0)  -->
<svg version="1.1" id="Layer_1" xmlns="http://www.w3.org/2000/svg" xmlns:xlink="http://www.w3.org/1999/xlink" x="0px" y="0px"
	 viewBox="0 0 496 496" style="enable-background:new 0 0 496 496;" xml:space="preserve">
<g>
	<path style="fill:#F9BA48;" d="M165.688,495.885c-6.584,0-12.776-2.552-17.416-7.192L7.192,347.605
		C2.552,342.965,0,336.773,0,330.189c0-6.592,2.552-12.784,7.192-17.424l52.904-52.904c9.608-9.592,25.216-9.584,34.832-0.008
		l141.104,141.104c9.584,9.6,9.584,25.224,0,34.832l-52.92,52.904C178.472,493.333,172.288,495.885,165.688,495.885z"/>
	<path style="fill:#F9BA48;" d="M418.48,243.101c-6.304,0-12.608-2.4-17.416-7.184v-0.008L259.976,94.813
		c-9.592-9.6-9.592-25.224-0.008-34.832l52.92-52.904c9.256-9.28,25.536-9.288,34.832,0l141.088,141.088
		c4.64,4.64,7.192,10.832,7.192,17.416c0,6.592-2.552,12.784-7.192,17.424l-52.904,52.904
		C431.088,240.709,424.784,243.101,418.48,243.101z"/>
</g>
<g>
	<path style="fill:#333333;" d="M83.608,459.741c-3.232,3.232-8.968,3.232-12.2,0l-35.272-35.272c-3.36-3.36-3.36-8.84,0-12.2
		l17.856-17.856L42.68,383.101l-17.856,17.856c-9.6,9.6-9.6,25.224,0,34.832l35.272,35.272c4.64,4.64,10.824,7.192,17.416,7.192
		c6.592,0,12.776-2.56,17.416-7.2l17.848-17.856l-11.312-11.312L83.608,459.741z"/>
	<path style="fill:#333333;" d="M412.376,36.029c3.368-3.352,8.832-3.36,12.2,0l35.272,35.28c1.616,1.608,2.504,3.776,2.504,6.096
		s-0.888,4.488-2.504,6.104L442,101.357l11.312,11.312l17.856-17.84c4.64-4.64,7.192-10.824,7.192-17.416
		s-2.552-12.776-7.192-17.416l-35.272-35.28c-9.616-9.6-25.232-9.6-34.832,0l-17.848,17.848l11.312,11.312L412.376,36.029z"/>
	<path style="fill:#333333;" d="M209.568,309.389c7.384-7.384,9.8-17.792,7.464-27.264c5.872-0.88,11.528-3.488,16.048-8
		c7.392-7.384,9.808-17.8,7.472-27.28c5.872-0.888,11.536-3.496,16.032-8c5.432-5.44,8.432-12.664,8.432-20.352
		c0-0.232-0.064-0.456-0.064-0.688c0.232,0.008,0.456,0.064,0.68,0.064c7.368,0,14.744-2.808,20.352-8.416
		c11.224-11.216,11.224-29.48,0-40.704l-3.16-3.16l23.96-23.96l-11.312-11.312l-23.96,23.96l-9.04-9.04
		c-11.216-11.224-29.488-11.224-40.704,0c-5.792,5.784-8.536,13.44-8.352,21.04c-7.6-0.184-15.264,2.56-21.048,8.352
		c-7.392,7.384-9.808,17.8-7.472,27.272c-5.872,0.888-11.52,3.488-16.032,8c-7.384,7.384-9.808,17.792-7.472,27.264
		c-5.872,0.888-11.528,3.496-16.04,8.008c-10.288,10.28-11.032,26.432-2.448,37.704l-12.472,12.472l11.312,11.312l12.2-12.2
		l14.92,14.92c5.608,5.608,12.976,8.416,20.352,8.416C196.584,317.805,203.952,315.005,209.568,309.389z M233.08,156.541
		c2.488-2.488,5.76-3.736,9.04-3.736c3.272,0,6.544,1.248,9.04,3.736l23.512,23.512c4.984,4.984,4.984,13.088,0,18.08
		c-4.976,4.976-13.088,4.976-18.08,0l-23.512-23.512C228.096,169.637,228.096,161.525,233.08,156.541z M203.688,185.933
		c2.496-2.488,5.768-3.736,9.04-3.736c3.264,0,6.528,1.248,9.024,3.72c0.008,0.008,0.016,0.016,0.024,0.024l23.512,23.52
		c0.008,0.008,0.016,0.008,0.016,0.016c2.392,2.408,3.728,5.6,3.728,9.008c0,3.416-1.328,6.624-3.744,9.04
		c-4.976,4.984-13.088,4.992-18.08,0l-23.512-23.512C198.704,199.029,198.704,190.917,203.688,185.933z M180.176,221.205
		c2.488-2.488,5.76-3.736,9.04-3.736c3.24,0,6.472,1.232,8.952,3.664l17.712,17.712c0.024,0.024,0.064,0.04,0.088,0.072l5.8,5.8
		c4.984,4.984,4.984,13.096,0,18.08c-4.984,4.984-13.096,4.984-18.08,0l-23.512-23.512
		C175.192,234.301,175.192,226.189,180.176,221.205z M180.168,298.069l-23.512-23.512c-4.984-4.984-4.984-13.096,0-18.08
		c2.488-2.488,5.76-3.736,9.04-3.736c3.272,0,6.544,1.248,9.04,3.736l23.512,23.512c4.984,4.984,4.984,13.096,0,18.08
		C193.264,303.053,185.152,303.061,180.168,298.069z"/>
	<path style="fill:#333333;" d="M368.72,200.005c0.504-8.784-2.432-17.24-8.28-23.816c-5.856-6.576-13.912-10.472-22.696-10.984
		c-8.832-0.488-17.248,2.432-23.816,8.28c-6.576,5.848-10.48,13.904-10.992,22.688l-2.728,46.968l-104.68,104.68l0,0l-6.312,6.312
		l11.312,11.312l6.312-6.312l9.256,9.256c15.424,15.424,38.704,19.76,58.464,11.432l102.768,102.768l99.496-99.496L364.592,270.861
		L368.72,200.005z M397.824,326.733l-19.496,19.496l11.312,11.312l19.496-19.496l45.048,45.048l-76.856,76.872l-45.048-45.056
		l49.368-49.368l-11.312-11.312l-49.368,49.368l-43.416-43.416l-5.296,2.992c-14.568,8.248-33.008,5.744-44.832-6.088l-9.264-9.264
		l97.664-97.672l3.088-53.04c0.544-9.328,8.592-16.552,17.896-15.928c4.512,0.264,8.656,2.272,11.664,5.648
		c3.008,3.376,4.52,7.728,4.256,12.248l-4.536,78.024L397.824,326.733z"/>
	
		<rect x="343.988" y="84.59" transform="matrix(-0.7071 0.7071 -0.7071 -0.7071 668.6942 -85.178)" style="fill:#333333;" width="16" height="22.624"/>
	
		<rect x="367.969" y="108.59" transform="matrix(-0.7071 0.7071 -0.7071 -0.7071 726.6025 -61.1644)" style="fill:#333333;" width="16" height="22.624"/>
	
		<rect x="391.966" y="132.59" transform="matrix(-0.7071 0.7071 -0.7071 -0.7071 784.5382 -37.1621)" style="fill:#333333;" width="16" height="22.624"/>
	
		<rect x="87.972" y="340.593" transform="matrix(-0.7071 0.7071 -0.7071 -0.7071 412.6691 532.8774)" style="fill:#333333;" width="16" height="22.624"/>
	
		<rect x="112.009" y="364.593" transform="matrix(-0.7071 0.7071 -0.7071 -0.7071 470.6731 556.8514)" style="fill:#333333;" width="16" height="22.624"/>
	
		<rect x="135.974" y="388.585" transform="matrix(-0.7071 0.7071 -0.7071 -0.7071 528.5485 580.8626)" style="fill:#333333;" width="16" height="22.624"/>
</g>
<g>
</g>
<g>
</g>
<g>
</g>
<g>
</g>
<g>
</g>
<g>
</g>
<g>
</g>
<g>
</g>
<g>
</g>
<g>
</g>
<g>
</g>
<g>
</g>
<g>
</g>
<g>
</g>
<g>
</g>
</svg>
