<?xml version="1.0" encoding="iso-8859-1"?>
<!-- Generator: Adobe Illustrator 19.0.0, SVG Export Plug-In . SVG Version: 6.00 Build 0)  -->
<svg version="1.1" id="Layer_1" xmlns="http://www.w3.org/2000/svg" xmlns:xlink="http://www.w3.org/1999/xlink" x="0px" y="0px"
	 viewBox="0 0 496 496" style="enable-background:new 0 0 496 496;" xml:space="preserve">
<path style="fill:#F9BA48;" d="M248,48c-66.272,0-120,53.728-120,120s53.728,120,120,120s120-53.728,120-120S314.272,48,248,48z
	 M208,248V88l128,80L208,248z"/>
<g>
	<path style="fill:#333333;" d="M496,368V16H0v352h208v41.64l-83.984,19.376C112.224,431.744,104,442.088,104,454.176
		c0,14.24,11.584,25.824,25.824,25.824h2.752c3.296,0,6.52-0.616,9.584-1.84L217.536,448h60.928l75.376,30.16
		c3.064,1.224,6.288,1.84,9.584,1.84h2.752c14.24,0,25.824-11.584,25.824-25.824c0-12.096-8.224-22.44-20.016-25.168L288,409.64V368
		H496z M480,32v272H16V32H480z M16,352v-32h464v32H288h-80H16z M136.216,463.296c-1.16,0.472-2.384,0.704-3.648,0.704h-2.752
		c-5.408,0-9.816-4.408-9.816-9.824c0-4.6,3.136-8.536,7.608-9.568L208,426.056v8.528L136.216,463.296z M368.392,444.608
		c4.472,1.032,7.608,4.968,7.608,9.568c0,5.416-4.408,9.824-9.824,9.824h-2.752c-1.256,0-2.488-0.232-3.648-0.704L288,434.584
		v-8.528L368.392,444.608z M272,405.944V432h-48v-26.056V368h48V405.944z"/>
	<path style="fill:#333333;" d="M200,73.56v188.872L351.096,168L200,73.56z M216,102.44L320.904,168L216,233.56V102.44z"/>
</g>
<g>
</g>
<g>
</g>
<g>
</g>
<g>
</g>
<g>
</g>
<g>
</g>
<g>
</g>
<g>
</g>
<g>
</g>
<g>
</g>
<g>
</g>
<g>
</g>
<g>
</g>
<g>
</g>
<g>
</g>
</svg>
