<?xml version="1.0" encoding="iso-8859-1"?>
<!-- Generator: Adobe Illustrator 19.0.0, SVG Export Plug-In . SVG Version: 6.00 Build 0)  -->
<svg version="1.1" id="Layer_1" xmlns="http://www.w3.org/2000/svg" xmlns:xlink="http://www.w3.org/1999/xlink" x="0px" y="0px"
	 viewBox="0 0 496 496" style="enable-background:new 0 0 496 496;" xml:space="preserve">
<path style="fill:#F9BA48;" d="M279.168,352.12c-14.84,0-29.768-4.872-42.144-14.888L160.888,275.6
	c-13.984-11.32-22.696-27.408-24.528-45.296c-1.84-17.896,3.424-35.424,14.808-49.344l21.992-26.896
	c4.76-5.76,11.424-9.264,18.8-9.92c7.32-0.696,14.408,1.592,20,6.32l18.04,15c5.6,4.624,9.08,11.192,9.752,18.48
	c0.68,7.312-1.536,14.44-6.248,20.08l-20.136,24.128c-0.608,0.736-0.632,1.528-0.592,1.936s0.208,1.176,0.944,1.776l53.784,43.608
	c1.096,0.88,2.712,0.76,3.648-0.336l22.144-25.768c9.672-11.352,26.856-12.816,38.312-3.248l18.552,15.432
	c11.488,9.552,13.12,26.792,3.648,38.408l-0.016,0.016l-22.608,27.616C317.96,343.736,298.632,352.12,279.168,352.12z"/>
<g>
	<path style="fill:#333333;" d="M384,0H112C98.768,0,88,10.768,88,24v448c0,13.232,10.768,24,24,24h272c13.232,0,24-10.768,24-24V24
		C408,10.768,397.232,0,384,0z M112,16h272c4.416,0,8,3.584,8,8v40H104V24C104,19.584,107.584,16,112,16z M392,80v336H104V80H392z
		 M384,480H248H112c-4.416,0-8-3.584-8-8v-40h144h144v40C392,476.416,388.416,480,384,480z"/>
	<path style="fill:#333333;" d="M272,456c0-13.232-10.768-24-24-24s-24,10.768-24,24s10.768,24,24,24S272,469.232,272,456z M248,464
		c-4.416,0-8-3.584-8-8s3.584-8,8-8c4.416,0,8,3.584,8,8S252.416,464,248,464z"/>
	<rect x="232" y="32" style="fill:#333333;" width="64" height="16"/>
	<rect x="200" y="32" style="fill:#333333;" width="16" height="16"/>
	<rect x="280" y="184" style="fill:#333333;" width="16" height="16"/>
	<rect x="312" y="152" style="fill:#333333;" width="16" height="16"/>
	<rect x="344" y="120" style="fill:#333333;" width="16" height="16"/>
</g>
<g>
</g>
<g>
</g>
<g>
</g>
<g>
</g>
<g>
</g>
<g>
</g>
<g>
</g>
<g>
</g>
<g>
</g>
<g>
</g>
<g>
</g>
<g>
</g>
<g>
</g>
<g>
</g>
<g>
</g>
</svg>
