<?xml version="1.0" encoding="iso-8859-1"?>
<!-- Generator: Adobe Illustrator 19.0.0, SVG Export Plug-In . SVG Version: 6.00 Build 0)  -->
<svg version="1.1" id="Capa_1" xmlns="http://www.w3.org/2000/svg" xmlns:xlink="http://www.w3.org/1999/xlink" x="0px" y="0px"
	 viewBox="0 0 496 496" style="enable-background:new 0 0 496 496;" xml:space="preserve">
<g>
	<rect x="272" y="368" style="fill:#FFA64D;" width="208" height="32"/>
	<path style="fill:#FFA64D;" d="M224,8H32c-8.84,0-16,7.16-16,16v32h224V24C240,15.16,232.84,8,224,8z"/>
</g>
<g>
	<path style="fill:#333333;" d="M256,64c0-5.896-3.24-11-8-13.776V24c0-13.232-10.768-24-24-24H32C18.768,0,8,10.768,8,24v26.224
		C3.24,53,0,58.104,0,64v105.24c0,21.992,9.848,42.488,27.024,56.224l13.216,10.56l13.904,222.472
		C55.456,479.528,72.992,496,94.064,496h67.872c21.072,0,38.608-16.472,39.92-37.504l13.904-222.472l13.216-10.56
		C246.152,211.728,256,191.232,256,169.24V64z M232,24v24h-16V16h8C228.408,16,232,19.584,232,24z M56,48V16h16v32H56z M88,16h16v32
		H88V16z M120,16h16v32h-16V16z M152,16h16v32h-16V16z M184,16h16v32h-16V16z M32,16h8v32H24V24C24,19.584,27.592,16,32,16z
		 M161.936,480H94.064c-12.64,0-23.168-9.88-23.952-22.496l-0.6-9.504H186.48l-0.592,9.504C185.104,470.12,174.576,480,161.936,480z
		 M218.984,212.968l-18.744,15L187.488,432H68.512L55.76,227.968l-18.744-15C23.664,202.288,16,186.344,16,169.24V112h192V96H16V64
		h8h208h8v32h-16v16h16v57.24C240,186.344,232.336,202.288,218.984,212.968z"/>
	<path style="fill:#333333;" d="M128,168c-22.056,0-40,17.944-40,40v80c0,22.056,17.944,40,40,40s40-17.944,40-40v-80
		C168,185.944,150.056,168,128,168z M128,184c13.232,0,24,10.768,24,24v8h-48v-8C104,194.768,114.768,184,128,184z M152,232v32h-48
		v-32H152z M128,312c-13.232,0-24-10.768-24-24v-8h48v8C152,301.232,141.232,312,128,312z"/>
	<path style="fill:#333333;" d="M448,208v144h-16V208h-48v144h-16V208h-48v144h-16V208h-48v144v8v32c0,31.28,20.08,57.888,48,67.8
		V496h144v-36.2c27.92-9.912,48-36.52,48-67.8v-32v-8V208H448z M400,224h16v128h-16V224z M336,224h16v128h-16V224z M272,224h16v128
		h-16V224z M432,480H320v-16.472c2.632,0.296,5.296,0.472,8,0.472h96c2.704,0,5.368-0.176,8-0.472V480z M480,392
		c0,30.872-25.12,56-56,56h-96c-30.88,0-56-25.128-56-56v-24h208V392z M464,352V224h16v128H464z"/>
</g>
<rect x="16" y="112" style="fill:#FFA64D;" width="224" height="32"/>
<g>
</g>
<g>
</g>
<g>
</g>
<g>
</g>
<g>
</g>
<g>
</g>
<g>
</g>
<g>
</g>
<g>
</g>
<g>
</g>
<g>
</g>
<g>
</g>
<g>
</g>
<g>
</g>
<g>
</g>
</svg>
